<svg xmlns="http://www.w3.org/2000/svg" width="1200" height="760" aria-labelledby="title desc" role="img" viewBox="0 0 1200 760"><title id="title">Codex 设置入口速查</title><desc id="desc">以信息表格方式整理 Codex 桌面 App 设置入口、用途和建议。</desc><defs><style>.font{font-family:-apple-system,BlinkMacSystemFont,&quot;Segoe UI&quot;,&quot;Microsoft YaHei&quot;,sans-serif}.title{fill:#050505;font-size:32px;font-weight:760;letter-spacing:0}.head,.meta{fill:#737373}.meta{font-size:13px;letter-spacing:0}.head{font-size:12px;font-weight:680;letter-spacing:.08em;text-transform:uppercase}.group{fill:#050505;font-size:18px;font-weight:720}.body,.group,.item{letter-spacing:0}.item{fill:#111;font-size:16px;font-weight:650}.body{fill:#525252;font-size:14px}.muted,.tag{font-size:12px;letter-spacing:0}.tag{fill:#050505;font-weight:680}.muted{fill:#8a8a8a}.line{stroke:#e5e5e5;stroke-width:1}.soft{fill:#fafafa}.chip{fill:#fff;stroke:#d4d4d4;stroke-width:1}</style></defs><rect width="1200" height="760" fill="#fff"/><g class="font"><text x="0" y="0" class="title" dominant-baseline="hanging" transform="translate(52 46)">Codex 设置矩阵</text><text x="1018" y="6" class="meta" text-anchor="end" transform="translate(52 46)">2026-06-13</text></g><g class="font" transform="translate(52 96)"><rect width="1096" height="596" fill="#fff" stroke="#d4d4d4" rx="14"/><rect width="1096" height="48" class="soft" rx="14"/><path d="M0 48H1096" class="line"/><text x="24" y="30" class="head">分组</text><text x="210" y="30" class="head">入口</text><text x="430" y="30" class="head">用途</text><text x="770" y="30" class="head">建议</text><text x="954" y="30" class="head">风险</text><path d="M186 0V596" class="line"/><path d="M406 0V596" class="line"/><path d="M746 0V596" class="line"/><path d="M930 0V596" class="line"/><g transform="translate(0 48)"><path d="M0 64H1096M0 128H1096M0 192H1096M0 256H1096M0 320H1096M0 384H1096M0 448H1096M0 512H1096" class="line"/><rect width="1096" height="64" x="0" y="0" fill="#fff"/><rect width="1096" height="64" x="0" y="128" class="soft"/><rect width="1096" height="64" x="0" y="256" class="soft"/><rect width="1096" height="64" x="0" y="384" class="soft"/><rect width="1096" height="12" x="0" y="512" fill="#fff"/><text x="24" y="40" class="group">个人</text><text x="210" y="30" class="item">常规</text><text x="210" y="50" class="body">模式 · 权限 · 默认打开</text><text x="430" y="30" class="body">默认行为</text><rect width="116" height="28" x="770" y="18" class="chip" rx="14"/><text x="828" y="37" class="tag" text-anchor="middle">编程模式</text><text x="954" y="37" class="muted">中</text><text x="210" y="94" class="item">外观</text><text x="210" y="114" class="body">主题 · 字体 · 密度</text><text x="430" y="94" class="body">阅读体验</text><rect width="92" height="28" x="770" y="82" class="chip" rx="14"/><text x="816" y="101" class="tag" text-anchor="middle">按习惯</text><text x="954" y="101" class="muted">低</text><text x="210" y="158" class="item">配置</text><text x="210" y="178" class="body">模型 · 沙盒 · 审批</text><text x="430" y="158" class="body">执行策略</text><rect width="92" height="28" x="770" y="146" class="chip" rx="14"/><text x="816" y="165" class="tag" text-anchor="middle">默认</text><text x="954" y="165" class="muted">中</text><text x="210" y="222" class="item">个性化</text><text x="210" y="242" class="body">语气 · 偏好 · 习惯</text><text x="430" y="222" class="body">协作规则</text><rect width="104" height="28" x="770" y="210" class="chip" rx="14"/><text x="822" y="229" class="tag" text-anchor="middle">少量规则</text><text x="954" y="229" class="muted">低</text><text x="24" y="296" class="group">集成</text><text x="210" y="286" class="item">MCP</text><text x="210" y="306" class="body">工具 · 数据 · 服务</text><text x="430" y="286" class="body">外部能力</text><rect width="104" height="28" x="770" y="274" class="chip" rx="14"/><text x="822" y="293" class="tag" text-anchor="middle">按需开启</text><text x="954" y="293" class="muted">高</text><text x="210" y="350" class="item">浏览器</text><text x="210" y="370" class="body">页面 · 点击 · 截图</text><text x="430" y="350" class="body">预览检查</text><rect width="104" height="28" x="770" y="338" class="chip" rx="14"/><text x="822" y="357" class="tag" text-anchor="middle">先本地</text><text x="954" y="357" class="muted">中</text><text x="210" y="414" class="item">电脑操控</text><text x="210" y="434" class="body">屏幕 · 输入 · 应用</text><text x="430" y="414" class="body">桌面流程</text><rect width="104" height="28" x="770" y="402" class="chip" rx="14"/><text x="822" y="421" class="tag" text-anchor="middle">先观察</text><text x="954" y="421" class="muted">高</text><text x="24" y="488" class="group">编码</text><text x="210" y="478" class="item">Git / 环境</text><text x="210" y="498" class="body">分支 · 命令 · 运行时</text><text x="430" y="478" class="body">回滚复现</text><rect width="116" height="28" x="770" y="466" class="chip" rx="14"/><text x="828" y="485" class="tag" text-anchor="middle">先看 diff</text><text x="954" y="485" class="muted">中</text></g></g></svg>